<svg xmlns="http://www.w3.org/2000/svg" xmlns:xlink="http://www.w3.org/1999/xlink" id="a21b98aa-6eea-4384-9fec-f93f7ad5907c" data-name="Layer 1" width="4.1in" height="1.63in" viewBox="0 0 295 117.44" class="img-fluid svg replaced-svg"><defs><linearGradient id="bc7ab1a9-64e6-4765-ac50-2cce17239d9e" x1="87.82" y1="79.28" x2="157.59" y2="79.28" gradientUnits="userSpaceOnUse"><stop offset="0" stop-color="#f47521"></stop><stop offset="1" stop-color="#f79720"></stop></linearGradient><linearGradient id="aa58cf7c-7e9c-4ae4-901f-c56b8961539f" x1="465.53" y1="285.3" x2="542.5" y2="285.3" xlink:href="#bc7ab1a9-64e6-4765-ac50-2cce17239d9e"></linearGradient></defs><rect x="87.82" y="75.41" width="69.77" height="7.74" fill="url(#bc7ab1a9-64e6-4765-ac50-2cce17239d9e)"></rect><path d="M480.39,338.3a16.13,16.13,0,0,1-16.54,16.41c-9.31,0-16.6-6.84-16.6-16.41S454.54,322,463.85,322,480.39,328.73,480.39,338.3Zm-4.75,0a11.85,11.85,0,1,0-23.7,0,11.85,11.85,0,1,0,23.7,0Z" transform="translate(-247.5 -247.28)" fill="#5a5a5a"></path><path d="M505.74,322.64v4.63c-.57-.06-1.64-.06-2.21-.06-8.3,0-12.55,6.27-12.55,14.7v12h-4.88V322.71H491v7.66c2.54-4.62,6.78-8,12.55-8A7.14,7.14,0,0,1,505.74,322.64Z" transform="translate(-247.5 -247.28)" fill="#5a5a5a"></path><path d="M542.49,338.36c0,9.89-7.29,16.41-15.59,16.41A15.2,15.2,0,0,1,514.48,349v15.71h-4.82v-42h4.82v5A15.2,15.2,0,0,1,526.9,322C535.2,322,542.49,328.47,542.49,338.36Zm-4.69,0c0-7.48-5.2-12.17-11.66-12.17a12.14,12.14,0,0,0,0,24.27C532.6,350.46,537.8,345.77,537.8,338.36Z" transform="translate(-247.5 -247.28)" fill="#5a5a5a"></path><path d="M438.77,344.41c-1.8,3.89-5.62,5.86-9.84,5.86-6.4,0-11.59-4.62-11.59-11.91s5.19-12,11.59-12a10.26,10.26,0,0,1,9.65,5.89h5.15c-1.92-6.36-8-10.32-14.8-10.32a16.41,16.41,0,0,0,0,32.82c6.91,0,13.06-3.93,14.77-10.33l-.11,0Z" transform="translate(-247.5 -247.28)" fill="#5a5a5a"></path><path d="M298.44,291.55c0,14.76-11.09,24.81-23,24.81a24,24,0,0,1-15.51-5.07V315H247.5V247.28h12.41v24.53c3.94-3.29,9.11-5.17,15.51-5.17C287.35,266.64,298.44,276.79,298.44,291.55Zm-12,0c0-8.65-5.64-14.1-13.16-14.1-6.67,0-13.34,5.45-13.34,14.1a13.54,13.54,0,0,0,13.34,14C280.77,305.55,286.41,300.2,286.41,291.55Z" transform="translate(-247.5 -247.28)" fill="#5a5a5a"></path><path d="M334.17,267.77l-.66,11.94h-2.73c-11.47,0-16.73,7.05-16.73,20.11V315H301.64v-46.9h12.41v8.55c3.76-5.45,9.21-9.21,16.83-9.21A9.5,9.5,0,0,1,334.17,267.77Z" transform="translate(-247.5 -247.28)" fill="#5a5a5a"></path><path d="M385,315H372.54v-3.66A24,24,0,0,1,357,316.36c-11.93,0-23-10.05-23-24.81s11.1-24.91,23-24.91c6.39,0,11.56,1.88,15.51,5.17v-3.76H385Zm-12.41-23.4c0-8.65-6.67-14.1-13.35-14.1-7.51,0-13.15,5.45-13.15,14.1s5.64,14,13.15,14A13.54,13.54,0,0,0,372.54,291.55Z" transform="translate(-247.5 -247.28)" fill="#5a5a5a"></path><path d="M406.41,255.07a7.53,7.53,0,0,1-15,0,7.52,7.52,0,0,1,15,0Z" transform="translate(-247.5 -247.28)" fill="#5a5a5a"></path><rect x="145.19" y="20.77" width="12.41" height="46.9" fill="#5a5a5a"></rect><path d="M458.79,286.38V315H446.38V289c0-6.58-3.76-11-9.49-11-7.05,0-11.65,4.7-11.65,16.17V315H412.83v-46.9h12.41v4.23c3.66-3.67,8.55-5.64,14.75-5.64C451.27,266.64,458.79,274.72,458.79,286.38Z" transform="translate(-247.5 -247.28)" fill="#5a5a5a"></path><path d="M535.51,267.11c-8.12-8.49-22.55-13.38-35.11-11.9-11.84,1.41-23.56,8.4-29.84,17.81a28,28,0,0,0-3.92,23.76c2.84,10,11.78,17.35,22.76,18.67a27.91,27.91,0,0,0,3.39.21,23.33,23.33,0,0,0,19.06-9.28c2.26,0,4.49-.09,6.51-.19l.54,0c9.43-.44,21.19-5.45,23.26-18.12A23.79,23.79,0,0,0,535.51,267.11Zm-21.68,33.58-1,0c-3.92.12-8,.25-11.64-1a8.42,8.42,0,0,1-4.88-4,5,5,0,0,1-.13-3.95c1.23-3.33,4.95-4.91,8.29-4.91a11.07,11.07,0,0,1,1.3.08,9.43,9.43,0,0,1,7.47,5.17A11.65,11.65,0,0,1,513.83,300.69Zm21.69-12.42c-1.24,5.51-5.72,9.77-12,11.38a38.25,38.25,0,0,1-8.23,1,12.42,12.42,0,0,0-.85-11,12.55,12.55,0,0,0-12.73-6,11.82,11.82,0,0,0-9.42,7.2,9.26,9.26,0,0,0,1.64,9.52c3.76,4.5,9.92,5.74,16,6a23.66,23.66,0,0,1-22.33,5.11c-9.17-2.48-15.46-9.66-16.43-18.75A24,24,0,0,1,477,274.44c6-7.12,15.77-12,25.61-12.65.94-.07,1.89-.1,2.83-.1,8.78,0,17,2.88,22.91,8.1C532.9,273.85,537.2,280.84,535.52,288.27Z" transform="translate(-247.5 -247.28)" fill="url(#aa58cf7c-7e9c-4ae4-901f-c56b8961539f)"></path><path d="M540.71,260c0-.11,0-.29,0-.54a1.71,1.71,0,0,0-.11-.64.86.86,0,0,0-.4-.4.89.89,0,0,0,.53-.8,1.08,1.08,0,0,0-.41-.9,1.68,1.68,0,0,0-1.1-.32h-1.3v3.94h.7v-1.57h.73a.57.57,0,0,1,.66.67,3.77,3.77,0,0,0,.06.9h.72v-.08A.91.91,0,0,1,540.71,260Zm-.92-2a1.06,1.06,0,0,1-.56.14h-.63V257h.65a1,1,0,0,1,.6.15.56.56,0,0,1,.16.46A.45.45,0,0,1,539.79,258Z" transform="translate(-247.5 -247.28)" fill="#5a5a5a"></path><path d="M539.21,255.54a2.78,2.78,0,1,1-2.7,2.78,2.75,2.75,0,0,1,2.7-2.78m0-.59a3.37,3.37,0,1,0,3.29,3.37,3.33,3.33,0,0,0-3.29-3.37Z" transform="translate(-247.5 -247.28)" fill="#5a5a5a"></path></svg>